STARTFONT 2.1
COMMENT $XFree86$
COMMENT  
COMMENT  Copyright 1988 Bitstream, Inc., Cambridge, Massachusetts, USA
COMMENT  Bitstream and Charter are registered trademarks of Bitstream, Inc.
COMMENT  
COMMENT  The names "Bitstream" and "Charter" are registered trademarks of
COMMENT  Bitstream, Inc.  Permission to use these trademarks is hereby
COMMENT  granted only in association with the images described in this file.
COMMENT  
COMMENT  Permission to use, copy, modify, and distribute this software and
COMMENT  its documentation for any purpose and without fee is hereby
COMMENT  granted, provided that the above copyright notice appear in all
COMMENT  copies and that both that copyright notice and this permission
COMMENT  notice appear in supporting documentation, and that the name of
COMMENT  Bitstream not be used in advertising or publicity pertaining to
COMMENT  distribution of the software without specific, written prior
COMMENT  permission.  Bitstream makes no representations about the
COMMENT  suitability of this software for any purpose.  It is provided "as
COMMENT  is" without express or implied warranty.
COMMENT  
COMMENT  BITSTREAM DISCLAIMS ALL WARRANTIES WITH REGARD TO THIS SOFTWARE,
COMMENT  INCLUDING ALL IMPLIED WARRANTIES OF MERCHANTABILITY AND FITNESS, IN
COMMENT  NO EVENT SHALL BITSTREAM BE LIABLE FOR ANY SPECIAL, INDIRECT OR
COMMENT  CONSEQUENTIAL DAMAGES OR ANY DAMAGES WHATSOEVER RESULTING FROM LOSS
COMMENT  OF USE, DATA OR PROFITS, WHETHER IN AN ACTION OF CONTRACT,
COMMENT  NEGLIGENCE OR OTHER TORTIOUS ACTION, ARISING OUT OF OR IN
COMMENT  CONNECTION WITH THE USE OR PERFORMANCE OF THIS SOFTWARE.
COMMENT  
COMMENT  
COMMENT Fontware CVTBDF v1.0
FONT -Bitstream-Charter-Medium-I-Normal--14-100-100-100-P-76-ISO8859-1
SIZE 10 100 100
FONTBOUNDINGBOX 15 17 -2 -3
STARTPROPERTIES 22
COMMENT Begin LogicalFontDescription
FONTNAME_REGISTRY ""
FAMILY_NAME "Charter"
FOUNDRY "Bitstream"
WEIGHT_NAME "Medium"
SETWIDTH_NAME "Normal"
SLANT "I"
ADD_STYLE_NAME ""

STARTCHAR space
ENCODING 32
SWIDTH 278 0
DWIDTH 4 0
BBX 1 1 0 0
BITMAP
00
ENDCHAR
STARTCHAR exclam
ENCODING 33
SWIDTH 338 0
DWIDTH 5 0
BBX 3 9 1 0
BITMAP
20
60
40
40
40
40
00
80
c0
ENDCHAR
STARTCHAR quotedbl
ENCODING 34
SWIDTH 331 0
DWIDTH 5 0
BBX 3 4 1 6
BITMAP
a0
a0
a0
a0
ENDCHAR
STARTCHAR numbersign
ENCODING 35
SWIDTH 745 0
DWIDTH 10 0
BBX 8 10 1 0
BITMAP
0a00
1200
1200
7f00
2400
2400
fe00
2800
4800
5000
ENDCHAR
STARTCHAR dollar
ENCODING 36
SWIDTH 556 0
DWIDTH 8 0
BBX 7 12 0 -1
BITMAP
08
08
1e
2a
4a
70
18
14
94
9c
70
20
ENDCHAR
STARTCHAR percent
ENCODING 37
SWIDTH 852 0
DWIDTH 12 0
BBX 10 11 1 0
BITMAP
2080
5100
9100
9200
9480
a540
4a40
1240
2240
2280
4100
ENDCHAR
STARTCHAR ampersand
ENCODING 38
SWIDTH 704 0
DWIDTH 10 0
BBX 9 9 0 0
BITMAP
1c00
2200
2200
3c00
3980
4900
c600
c600
7980
ENDCHAR
STARTCHAR quoteright
ENCODING 39
SWIDTH 201 0
DWIDTH 3 0
BBX 2 4 1 6
BITMAP
c0
c0
40
80
ENDCHAR
STARTCHAR parenleft
ENCODING 40
SWIDTH 419 0
DWIDTH 5 0
BBX 5 12 1 -2
BITMAP
18
20
40
40
40
80
80
80
80
80
40
60
ENDCHAR
STARTCHAR parenright
ENCODING 41
SWIDTH 419 0
DWIDTH 6 0
BBX 5 12 -1 -2
BITMAP
30
10
08
08
08
08
08
10
10
10
20
c0
ENDCHAR
STARTCHAR asterisk
ENCODING 42
SWIDTH 500 0
DWIDTH 7 0
BBX 6 5 1 5
BITMAP
10
10
fc
30
d0
ENDCHAR
STARTCHAR plus
ENCODING 43
SWIDTH 833 0
DWIDTH 12 0
BBX 9 9 2 0
BITMAP
0800
0800
0800
0800
ff80
0800
0800
0800
0800
ENDCHAR
STARTCHAR comma
ENCODING 44
SWIDTH 278 0
DWIDTH 4 0
BBX 3 4 -1 -2
BITMAP
60
60
20
c0
ENDCHAR
STARTCHAR hyphen
ENCODING 45
SWIDTH 319 0
DWIDTH 4 0
BBX 3 1 0 3
BITMAP
e0
ENDCHAR
STARTCHAR period
ENCODING 46
SWIDTH 278 0
DWIDTH 4 0
BBX 2 2 0 0
BITMAP
c0
c0
ENDCHAR
STARTCHAR slash
ENCODING 47
SWIDTH 481 0
DWIDTH 7 0
BBX 9 10 -2 -1
BITMAP
0080
0100
0200
0400
0800
0800
1000
2000
4000
8000
ENDCHAR
STARTCHAR zero
ENCODING 48
SWIDTH 556 0
DWIDTH 8 0
BBX 7 9 1 0
BITMAP
1c
22
42
c2
82
86
84
88
70
ENDCHAR
STARTCHAR one
ENCODING 49
SWIDTH 556 0
DWIDTH 8 0
BBX 5 9 1 0
BITMAP
18
78
10
10
10
10
30
20
f8
ENDCHAR
STARTCHAR two
ENCODING 50
SWIDTH 556 0
DWIDTH 8 0
BBX 7 9 0 0
BITMAP
1c
22
62
02
04
08
30
42
fc
ENDCHAR
STARTCHAR three
ENCODING 51
SWIDTH 556 0
DWIDTH 8 0
BBX 7 9 0 0
BITMAP
1c
22
62
06
18
04
06
84
78
ENDCHAR
STARTCHAR four
ENCODING 52
SWIDTH 556 0
DWIDTH 8 0
BBX 8 9 0 0
BITMAP
0200
0e00
1600
2400
4400
ff00
0400
0800
0800
ENDCHAR
STARTCHAR five
ENCODING 53
SWIDTH 556 0
DWIDTH 8 0
BBX 8 9 0 0
BITMAP
1f00
2000
2000
3c00
0600
0200
0200
c400
7800
ENDCHAR
STARTCHAR six
ENCODING 54
SWIDTH 556 0
DWIDTH 8 0
BBX 7 10 0 0
BITMAP
0e
30
40
7c
c6
82
82
82
c4
78
ENDCHAR
STARTCHAR seven
ENCODING 55
SWIDTH 556 0
DWIDTH 8 0
BBX 8 9 0 0
BITMAP
7f00
4200
0200
0400
0800
1000
2000
2000
c000
ENDCHAR
STARTCHAR eight
ENCODING 56
SWIDTH 556 0
DWIDTH 8 0
BBX 7 9 0 0
BITMAP
1c
22
42
64
38
c6
86
84
78
ENDCHAR
STARTCHAR nine
ENCODING 57
SWIDTH 556 0
DWIDTH 8 0
BBX 7 9 1 0
BITMAP
3c
46
82
82
c6
7c
0c
30
c0
ENDCHAR
STARTCHAR colon
ENCODING 58
SWIDTH 319 0
DWIDTH 4 0
BBX 2 6 1 0
BITMAP
40
40
00
00
80
80
ENDCHAR
STARTCHAR semicolon
ENCODING 59
SWIDTH 319 0
DWIDTH 5 0
BBX 4 8 0 -2
BITMAP
30
30
00
00
60
60
20
c0
ENDCHAR
STARTCHAR less
ENCODING 60
SWIDTH 833 0
DWIDTH 12 0
BBX 8 7 2 1
BITMAP
0100
0e00
7000
8000
7000
0e00
0100
ENDCHAR
STARTCHAR equal
ENCODING 61
SWIDTH 833 0
DWIDTH 12 0
BBX 8 4 2 2
BITMAP
ff00
0000
0000
ff00
ENDCHAR
STARTCHAR greater
ENCODING 62
SWIDTH 833 0
DWIDTH 12 0
BBX 8 7 2 1
BITMAP
c000
3000
0e00
0100
0e00
7000
8000
ENDCHAR
STARTCHAR question
ENCODING 63
SWIDTH 486 0
DWIDTH 7 0
BBX 5 9 1 0
BITMAP
70
c8
08
10
60
40
00
c0
c0
ENDCHAR
STARTCHAR at
ENCODING 64
SWIDTH 942 0
DWIDTH 13 0
BBX 11 12 1 -2
BITMAP
0f00
1080
2040
4720
8920
9120
9120
9240
cd80
4000
3080
0f00
ENDCHAR
STARTCHAR A
ENCODING 65
SWIDTH 606 0
DWIDTH 8 0
BBX 9 9 -1 0
BITMAP
0600
0600
0a00
1200
1200
3f00
2100
4100
e380
ENDCHAR
STARTCHAR B
ENCODING 66
SWIDTH 588 0
DWIDTH 9 0
BBX 8 9 0 0
BITMAP
3e00
1100
3100
3200
3e00
2300
2100
6200
fc00
ENDCHAR
STARTCHAR C
ENCODING 67
SWIDTH 604 0
DWIDTH 9 0
BBX 8 9 1 0
BITMAP
1e00
2100
4100
8000
8000
8000
8200
4200
3c00
ENDCHAR
STARTCHAR D
ENCODING 68
SWIDTH 671 0
DWIDTH 10 0
BBX 9 9 0 0
BITMAP
3e00
1100
3080
2080
2080
2080
6100
6600
f800
ENDCHAR
STARTCHAR E
ENCODING 69
SWIDTH 546 0
DWIDTH 8 0
BBX 8 9 0 0
BITMAP
3f00
1100
3000
2400
3c00
2400
6000
4200
fe00
ENDCHAR
STARTCHAR F
ENCODING 70
SWIDTH 509 0
DWIDTH 7 0
BBX 8 9 0 0
BITMAP
3f00
1100
3000
2400
3c00
2400
6000
4000
f000
ENDCHAR
STARTCHAR G
ENCODING 71
SWIDTH 664 0
DWIDTH 9 0
BBX 8 9 1 0
BITMAP
1f00
6100
4000
8000
8700
8200
8600
4400
3c00
ENDCHAR
STARTCHAR H
ENCODING 72
SWIDTH 712 0
DWIDTH 10 0
BBX 11 9 0 0
BITMAP
38e0
1040
30c0
2080
3f80
2080
6180
4100
e380
ENDCHAR
STARTCHAR I
ENCODING 73
SWIDTH 313 0
DWIDTH 4 0
BBX 5 9 0 0
BITMAP
38
10
30
20
20
20
60
40
e0
ENDCHAR
STARTCHAR J
ENCODING 74
SWIDTH 447 0
DWIDTH 6 0
BBX 7 9 -1 0
BITMAP
0e
04
0c
08
08
08
98
90
e0
ENDCHAR
STARTCHAR K
ENCODING 75
SWIDTH 625 0
DWIDTH 9 0
BBX 10 9 0 0
BITMAP
3bc0
1100
3200
2400
3800
2c00
6400
4200
f380
ENDCHAR
STARTCHAR L
ENCODING 76
SWIDTH 498 0
DWIDTH 7 0
BBX 6 9 0 0
BITMAP
70
20
20
20
20
60
44
44
fc
ENDCHAR
STARTCHAR M
ENCODING 77
SWIDTH 839 0
DWIDTH 11 0
BBX 12 9 0 0
BITMAP
3070
3060
38a0
28c0
2940
4a40
4a40
4c40
e5e0
ENDCHAR
STARTCHAR N
ENCODING 78
SWIDTH 683 0
DWIDTH 9 0
BBX 10 9 0 0
BITMAP
31c0
3080
3880
2880
2d00
4500
4700
4300
e300
ENDCHAR
STARTCHAR O
ENCODING 79
SWIDTH 708 0
DWIDTH 10 0
BBX 8 9 1 0
BITMAP
1c00
2200
4100
8100
8100
8100
8200
4400
3800
ENDCHAR
STARTCHAR P
ENCODING 80
SWIDTH 542 0
DWIDTH 8 0
BBX 8 9 0 0
BITMAP
3e00
1300
3100
2100
2200
3c00
6000
6000
e000
ENDCHAR
STARTCHAR Q
ENCODING 81
SWIDTH 708 0
DWIDTH 10 0
BBX 9 11 1 -2
BITMAP
1c00
2200
4100
8100
8100
8100
8200
4400
3800
0c00
0780
ENDCHAR
STARTCHAR R
ENCODING 82
SWIDTH 602 0
DWIDTH 9 0
BBX 9 9 0 0
BITMAP
3e00
1100
3100
2200
3c00
2600
2200
6200
f180
ENDCHAR
STARTCHAR S
ENCODING 83
SWIDTH 537 0
DWIDTH 7 0
BBX 7 9 0 0
BITMAP
1e
22
44
60
38
04
84
88
70
ENDCHAR
STARTCHAR T
ENCODING 84
SWIDTH 565 0
DWIDTH 7 0
BBX 7 9 1 0
BITMAP
fe
92
10
10
20
20
20
20
70
ENDCHAR
STARTCHAR U
ENCODING 85
SWIDTH 664 0
DWIDTH 9 0
BBX 9 9 1 0
BITMAP
e380
4100
4100
4200
8200
8200
8200
8400
7800
ENDCHAR
STARTCHAR V
ENCODING 86
SWIDTH 590 0
DWIDTH 8 0
BBX 9 9 0 0
BITMAP
e380
4100
4200
6200
2400
2400
2800
3000
3000
ENDCHAR
STARTCHAR W
ENCODING 87
SWIDTH 898 0
DWIDTH 12 0
BBX 12 9 1 0
BITMAP
e270
4620
4620
4a40
4a40
5280
5280
6300
6300
ENDCHAR
STARTCHAR X
ENCODING 88
SWIDTH 569 0
DWIDTH 8 0
BBX 10 9 -1 0
BITMAP
39c0
1080
0900
0a00
0400
0c00
3200
4200
e780
ENDCHAR
STARTCHAR Y
ENCODING 89
SWIDTH 563 0
DWIDTH 8 0
BBX 9 9 0 0
BITMAP
f380
4100
2200
2400
3800
1000
3000
2000
7800
ENDCHAR
STARTCHAR Z
ENCODING 90
SWIDTH 556 0
DWIDTH 7 0
BBX 8 9 0 0
BITMAP
3f00
2200
0400
0c00
1800
3000
2200
4200
fc00
ENDCHAR
STARTCHAR bracketleft
ENCODING 91
SWIDTH 421 0
DWIDTH 6 0
BBX 5 12 1 -2
BITMAP
38
20
20
40
40
40
40
40
40
80
80
e0
ENDCHAR
STARTCHAR backslash
ENCODING 92
SWIDTH 481 0
DWIDTH 7 0
BBX 7 10 0 -1
BITMAP
80
40
40
20
10
10
08
04
04
02
ENDCHAR
STARTCHAR bracketright
ENCODING 93
SWIDTH 421 0
DWIDTH 5 0
BBX 5 12 -1 -2
BITMAP
38
08
08
10
10
10
10
10
10
20
20
e0
ENDCHAR
STARTCHAR asciicircum
ENCODING 94
SWIDTH 1000 0
DWIDTH 14 0
BBX 8 4 3 6
BITMAP
1800
2400
4200
8100
ENDCHAR
STARTCHAR underscore
ENCODING 95
SWIDTH 500 0
DWIDTH 7 0
BBX 7 1 0 -3
BITMAP
fe
ENDCHAR
STARTCHAR quoteleft
ENCODING 96
SWIDTH 201 0
DWIDTH 3 0
BBX 2 4 1 6
BITMAP
40
80
c0
c0
ENDCHAR
STARTCHAR a
ENCODING 97
SWIDTH 525 0
DWIDTH 7 0
BBX 6 6 0 0
BITMAP
3c
44
84
88
98
6c
ENDCHAR
STARTCHAR b
ENCODING 98
SWIDTH 507 0
DWIDTH 7 0
BBX 6 11 0 0
BITMAP
e0
60
60
40
40
58
64
c4
84
88
70
ENDCHAR
STARTCHAR c
ENCODING 99
SWIDTH 394 0
DWIDTH 5 0
BBX 4 6 0 0
BITMAP
30
50
80
80
90
60
ENDCHAR
STARTCHAR d
ENCODING 100
SWIDTH 523 0
DWIDTH 7 0
BBX 7 11 0 0
BITMAP
0e
02
02
04
04
1c
64
84
84
98
6e
ENDCHAR
STARTCHAR e
ENCODING 101
SWIDTH 424 0
DWIDTH 6 0
BBX 5 6 0 0
BITMAP
30
48
90
e0
88
70
ENDCHAR
STARTCHAR f
ENCODING 102
SWIDTH 292 0
DWIDTH 4 0
BBX 8 14 -2 -3
BITMAP
0300
0500
0800
0800
0800
1e00
0800
1000
1000
1000
1000
1000
2000
c000
ENDCHAR
STARTCHAR g
ENCODING 103
SWIDTH 481 0
DWIDTH 7 0
BBX 7 9 0 -3
BITMAP
1a
64
4c
30
20
30
cc
84
78
ENDCHAR
STARTCHAR h
ENCODING 104
SWIDTH 551 0
DWIDTH 8 0
BBX 8 11 0 0
BITMAP
7000
3000
2000
2000
2000
2e00
7200
4200
4400
4400
c700
ENDCHAR
STARTCHAR i
ENCODING 105
SWIDTH 287 0
DWIDTH 4 0
BBX 3 11 1 0
BITMAP
20
60
00
00
00
c0
40
40
80
80
e0
ENDCHAR
STARTCHAR j
ENCODING 106
SWIDTH 269 0
DWIDTH 3 0
BBX 5 14 -2 -3
BITMAP
08
08
00
00
00
38
10
10
10
10
10
20
20
c0
ENDCHAR
STARTCHAR k
ENCODING 107
SWIDTH 514 0
DWIDTH 7 0
BBX 6 11 0 0
BITMAP
60
20
20
20
40
4c
50
60
50
58
8c
ENDCHAR
STARTCHAR l
ENCODING 108
SWIDTH 275 0
DWIDTH 4 0
BBX 3 11 0 0
BITMAP
e0
20
60
40
40
40
40
80
80
80
e0
ENDCHAR
STARTCHAR m
ENCODING 109
SWIDTH 815 0
DWIDTH 11 0
BBX 10 6 1 0
BITMAP
db80
6c80
4880
4900
8900
89c0
ENDCHAR
STARTCHAR n
ENCODING 110
SWIDTH 556 0
DWIDTH 8 0
BBX 7 6 1 0
BITMAP
dc
64
44
48
88
8e
ENDCHAR
STARTCHAR o
ENCODING 111
SWIDTH 502 0
DWIDTH 7 0
BBX 6 6 0 0
BITMAP
38
44
84
84
88
70
ENDCHAR
STARTCHAR p
ENCODING 112
SWIDTH 516 0
DWIDTH 7 0
BBX 7 9 -1 -3
BITMAP
7e
22
22
42
44
78
40
40
e0
ENDCHAR
STARTCHAR q
ENCODING 113
SWIDTH 512 0
DWIDTH 7 0
BBX 6 9 0 -3
BITMAP
3c
44
84
88
88
78
08
08
3c
ENDCHAR
STARTCHAR r
ENCODING 114
SWIDTH 398 0
DWIDTH 6 0
BBX 6 6 0 0
BITMAP
ec
74
40
40
c0
80
ENDCHAR
STARTCHAR s
ENCODING 115
SWIDTH 370 0
DWIDTH 5 0
BBX 4 6 0 0
BITMAP
30
50
40
30
90
60
ENDCHAR
STARTCHAR t
ENCODING 116
SWIDTH 333 0
DWIDTH 5 0
BBX 4 8 1 0
BITMAP
40
40
f0
40
c0
80
80
e0
ENDCHAR
STARTCHAR u
ENCODING 117
SWIDTH 553 0
DWIDTH 8 0
BBX 6 6 1 0
BITMAP
c4
44
48
88
98
ec
ENDCHAR
STARTCHAR v
ENCODING 118
SWIDTH 454 0
DWIDTH 6 0
BBX 6 6 0 0
BITMAP
c4
44
28
28
30
20
ENDCHAR
STARTCHAR w
ENCODING 119
SWIDTH 713 0
DWIDTH 10 0
BBX 10 6 0 0
BITMAP
c440
4440
4c80
5480
5500
6600
ENDCHAR
STARTCHAR x
ENCODING 120
SWIDTH 477 0
DWIDTH 6 0
BBX 7 6 -1 0
BITMAP
66
2a
10
30
a8
cc
ENDCHAR
STARTCHAR y
ENCODING 121
SWIDTH 475 0
DWIDTH 6 0
BBX 8 9 -2 -3
BITMAP
7300
1200
1200
1400
1400
0800
1000
a000
c000
ENDCHAR
STARTCHAR z
ENCODING 122
SWIDTH 440 0
DWIDTH 6 0
BBX 6 6 0 0
BITMAP
7c
48
10
28
44
f8
ENDCHAR
STARTCHAR braceleft
ENCODING 123
SWIDTH 486 0
DWIDTH 7 0
BBX 5 12 1 -2
BITMAP
18
20
20
20
20
c0
20
20
20
20
20
18
ENDCHAR
STARTCHAR bar
ENCODING 124
SWIDTH 500 0
DWIDTH 7 0
BBX 1 14 3 -3
BITMAP
80
80
80
80
80
80
80
80
80
80
80
80
80
80
ENDCHAR
STARTCHAR braceright
ENCODING 125
SWIDTH 486 0
DWIDTH 7 0
BBX 5 12 1 -2
BITMAP
c0
20
20
20
20
18
20
20
20
20
20
c0
ENDCHAR
STARTCHAR c0126
ENCODING 126
SWIDTH 1000 0
DWIDTH 14 0
BBX 9 2 3 7
BITMAP
3880
cf00
ENDCHAR
STARTCHAR space
ENCODING 160
SWIDTH 278 0
DWIDTH 4 0
BBX 1 1 0 0
BITMAP
00
ENDCHAR
STARTCHAR exclamdown
ENCODING 161
SWIDTH 338 0
DWIDTH 5 0
BBX 3 9 1 0
BITMAP
60
20
00
40
40
40
40
c0
80
ENDCHAR
STARTCHAR cent
ENCODING 162
SWIDTH 556 0
DWIDTH 8 0
BBX 6 10 1 -1
BITMAP
08
10
3c
54
90
90
a0
a8
78
20
ENDCHAR
STARTCHAR sterling
ENCODING 163
SWIDTH 556 0
DWIDTH 8 0
BBX 8 9 0 0
BITMAP
0700
1900
1000
3000
7c00
2000
2000
4000
fe00
ENDCHAR
STARTCHAR currency
ENCODING 164
SWIDTH 606 0
DWIDTH 8 0
BBX 8 8 0 2
BITMAP
8100
5a00
2400
4200
4200
2400
5a00
8100
ENDCHAR
STARTCHAR yen
ENCODING 165
SWIDTH 556 0
DWIDTH 8 0
BBX 9 9 0 0
BITMAP
7380
2100
2200
f700
1800
ff00
1000
1000
7800
ENDCHAR
STARTCHAR brokenbar
ENCODING 166
SWIDTH 500 0
DWIDTH 7 0
BBX 1 12 3 -2
BITMAP
80
80
80
80
80
00
00
80
80
80
80
80
ENDCHAR
STARTCHAR section
ENCODING 167
SWIDTH 500 0
DWIDTH 7 0
BBX 7 12 0 -2
BITMAP
1e
22
20
30
2c
44
44
68
18
88
88
70
ENDCHAR
STARTCHAR dieresis
ENCODING 168
SWIDTH 500 0
DWIDTH 7 0
BBX 3 1 3 9
BITMAP
a0
ENDCHAR
STARTCHAR copyright
ENCODING 169
SWIDTH 900 0
DWIDTH 12 0
BBX 10 11 1 0
BITMAP
1e00
2100
4e80
5280
a040
a040
a040
5280
4e80
2100
1e00
ENDCHAR
STARTCHAR ordfeminine
ENCODING 170
SWIDTH 394 0
DWIDTH 5 0
BBX 5 4 0 4
BITMAP
38
48
90
78
ENDCHAR
STARTCHAR guillemotleft
ENCODING 171
SWIDTH 442 0
DWIDTH 6 0
BBX 5 5 0 1
BITMAP
28
50
a0
90
50
ENDCHAR
STARTCHAR logicalnot
ENCODING 172
SWIDTH 833 0
DWIDTH 12 0
BBX 8 3 2 3
BITMAP
ff00
0100
0100
ENDCHAR
STARTCHAR hyphen
ENCODING 173
SWIDTH 319 0
DWIDTH 4 0
BBX 3 1 0 3
BITMAP
e0
ENDCHAR
STARTCHAR registered
ENCODING 174
SWIDTH 900 0
DWIDTH 12 0
BBX 10 11 1 0
BITMAP
1e00
2100
7c80
9280
9240
9c40
9240
9240
7b80
2100
1e00
ENDCHAR
STARTCHAR macron
ENCODING 175
SWIDTH 500 0
DWIDTH 7 0
BBX 4 1 2 9
BITMAP
f0
ENDCHAR
STARTCHAR degree
ENCODING 176
SWIDTH 329 0
DWIDTH 5 0
BBX 4 4 1 6
BITMAP
60
90
90
60
ENDCHAR
STARTCHAR plusminus
ENCODING 177
SWIDTH 833 0
DWIDTH 12 0
BBX 9 8 2 0
BITMAP
0800
0800
ff80
0800
0800
0000
0000
ff80
ENDCHAR
STARTCHAR twosuperior
ENCODING 178
SWIDTH 367 0
DWIDTH 5 0
BBX 5 6 0 4
BITMAP
30
48
08
30
48
f0
ENDCHAR
STARTCHAR threesuperior
ENCODING 179
SWIDTH 367 0
DWIDTH 5 0
BBX 5 6 0 4
BITMAP
30
48
18
30
18
e0
ENDCHAR
STARTCHAR acute
ENCODING 180
SWIDTH 500 0
DWIDTH 7 0
BBX 3 3 4 8
BITMAP
60
40
80
ENDCHAR
STARTCHAR mu
ENCODING 181
SWIDTH 548 0
DWIDTH 7 0
BBX 8 9 -1 -3
BITMAP
2600
2400
4400
4400
4d00
7600
8000
8000
8000
ENDCHAR
STARTCHAR paragraph
ENCODING 182
SWIDTH 484 0
DWIDTH 7 0
BBX 7 10 0 -1
BITMAP
3e
74
f4
f4
74
04
04
04
04
04
ENDCHAR
STARTCHAR periodcentered
ENCODING 183
SWIDTH 278 0
DWIDTH 4 0
BBX 2 2 1 4
BITMAP
c0
c0
ENDCHAR
STARTCHAR cedilla
ENCODING 184
SWIDTH 500 0
DWIDTH 7 0
BBX 3 3 1 -3
BITMAP
60
20
c0
ENDCHAR
STARTCHAR onesuperior
ENCODING 185
SWIDTH 367 0
DWIDTH 5 0
BBX 3 6 1 4
BITMAP
20
60
20
40
40
e0
ENDCHAR
STARTCHAR ordmasculine
ENCODING 186
SWIDTH 377 0
DWIDTH 5 0
BBX 4 4 0 4
BITMAP
60
90
90
60
ENDCHAR
STARTCHAR guillemotright
ENCODING 187
SWIDTH 442 0
DWIDTH 6 0
BBX 5 5 0 1
BITMAP
50
48
28
50
a0
ENDCHAR
STARTCHAR onequarter
ENCODING 188
SWIDTH 867 0
DWIDTH 13 0
BBX 12 10 1 0
BITMAP
2000
6040
2080
4100
4220
e460
08a0
11f0
2020
4040
ENDCHAR
STARTCHAR onehalf
ENCODING 189
SWIDTH 867 0
DWIDTH 13 0
BBX 12 10 1 0
BITMAP
2000
6040
2080
4100
4260
e490
0810
1060
2090
41e0
ENDCHAR
STARTCHAR threequarters
ENCODING 190
SWIDTH 867 0
DWIDTH 12 0
BBX 12 10 0 0
BITMAP
3000
4820
1840
3080
1920
e260
04a0
09f0
1020
2040
ENDCHAR
STARTCHAR questiondown
ENCODING 191
SWIDTH 486 0
DWIDTH 7 0
BBX 5 9 0 0
BITMAP
18
08
00
10
30
40
80
d8
70
ENDCHAR
STARTCHAR Agrave
ENCODING 192
SWIDTH 606 0
DWIDTH 8 0
BBX 9 13 -1 0
BITMAP
0400
0200
0200
0000
0600
0600
0a00
1200
1200
3f00
2100
4100
e380
ENDCHAR
STARTCHAR Aacute
ENCODING 193
SWIDTH 606 0
DWIDTH 8 0
BBX 9 13 -1 0
BITMAP
0180
0100
0200
0000
0600
0600
0a00
1200
1200
3f00
2100
4100
e380
ENDCHAR
STARTCHAR Acircumflex
ENCODING 194
SWIDTH 606 0
DWIDTH 8 0
BBX 9 13 -1 0
BITMAP
0200
0500
0900
0000
0600
0600
0a00
1200
1200
3f00
2100
4100
e380
ENDCHAR
STARTCHAR Atilde
ENCODING 195
SWIDTH 606 0
DWIDTH 8 0
BBX 9 12 -1 0
BITMAP
0680
0b00
0000
0600
0600
0a00
1200
1200
3f00
2100
4100
e380
ENDCHAR
STARTCHAR Adieresis
ENCODING 196
SWIDTH 606 0
DWIDTH 8 0
BBX 9 12 -1 0
BITMAP
0500
0000
0000
0600
0600
0a00
1200
1200
3f00
2100
4100
e380
ENDCHAR
STARTCHAR Aring
ENCODING 197
SWIDTH 606 0
DWIDTH 8 0
BBX 9 14 -1 0
BITMAP
0200
0500
0500
0200
0000
0600
0600
0a00
1200
1200
3f00
2100
4100
e380
ENDCHAR
STARTCHAR AE
ENCODING 198
SWIDTH 873 0
DWIDTH 12 0
BBX 14 9 -2 0
BITMAP
03fc
01c4
0280
0490
08f0
1f90
3180
4108
e3f8
ENDCHAR
STARTCHAR Ccedilla
ENCODING 199
SWIDTH 604 0
DWIDTH 9 0
BBX 8 12 1 -3
BITMAP
1e00
2100
4100
8000
8000
8000
8200
4200
3c00
1800
0800
3000
ENDCHAR
STARTCHAR Egrave
ENCODING 200
SWIDTH 546 0
DWIDTH 8 0
BBX 8 13 0 0
BITMAP
0800
0400
0400
0000
3f00
1100
3000
2400
3c00
2400
6000
4200
fe00
ENDCHAR
STARTCHAR Eacute
ENCODING 201
SWIDTH 546 0
DWIDTH 8 0
BBX 8 13 0 0
BITMAP
0300
0200
0400
0000
3f00
1100
3000
2400
3c00
2400
6000
4200
fe00
ENDCHAR
STARTCHAR Ecircumflex
ENCODING 202
SWIDTH 546 0
DWIDTH 8 0
BBX 8 13 0 0
BITMAP
0400
0a00
1200
0000
3f00
1100
3000
2400
3c00
2400
6000
4200
fe00
ENDCHAR
STARTCHAR Edieresis
ENCODING 203
SWIDTH 546 0
DWIDTH 8 0
BBX 8 12 0 0
BITMAP
0a00
0000
0000
3f00
1100
3000
2400
3c00
2400
6000
4200
fe00
ENDCHAR
STARTCHAR Igrave
ENCODING 204
SWIDTH 313 0
DWIDTH 4 0
BBX 5 13 0 0
BITMAP
20
10
10
00
38
10
30
20
20
20
60
40
e0
ENDCHAR
STARTCHAR Iacute
ENCODING 205
SWIDTH 313 0
DWIDTH 4 0
BBX 6 13 0 0
BITMAP
0c
08
10
00
38
10
30
20
20
20
60
40
e0
ENDCHAR
STARTCHAR Icircumflex
ENCODING 206
SWIDTH 313 0
DWIDTH 4 0
BBX 5 13 0 0
BITMAP
10
28
48
00
38
10
30
20
20
20
60
40
e0
ENDCHAR
STARTCHAR Idieresis
ENCODING 207
SWIDTH 313 0
DWIDTH 4 0
BBX 5 12 0 0
BITMAP
28
00
00
38
10
30
20
20
20
60
40
e0
ENDCHAR
STARTCHAR Eth
ENCODING 208
SWIDTH 671 0
DWIDTH 10 0
BBX 9 9 0 0
BITMAP
3e00
1100
3080
2080
7880
2080
2100
6600
f800
ENDCHAR
STARTCHAR Ntilde
ENCODING 209
SWIDTH 683 0
DWIDTH 9 0
BBX 10 12 0 0
BITMAP
0680
0b00
0000
31c0
3080
3880
2880
2d00
4500
4700
4300
e300
ENDCHAR
STARTCHAR Ograve
ENCODING 210
SWIDTH 708 0
DWIDTH 10 0
BBX 8 13 1 0
BITMAP
0800
0400
0400
0000
1c00
2200
4100
8100
8100
8100
8200
4400
3800
ENDCHAR
STARTCHAR Oacute
ENCODING 211
SWIDTH 708 0
DWIDTH 10 0
BBX 8 13 1 0
BITMAP
0300
0200
0400
0000
1c00
2200
4100
8100
8100
8100
8200
4400
3800
ENDCHAR
STARTCHAR Ocircumflex
ENCODING 212
SWIDTH 708 0
DWIDTH 10 0
BBX 8 13 1 0
BITMAP
0400
0a00
1200
0000
1c00
2200
4100
8100
8100
8100
8200
4400
3800
ENDCHAR
STARTCHAR Otilde
ENCODING 213
SWIDTH 708 0
DWIDTH 10 0
BBX 8 12 1 0
BITMAP
0d00
1600
0000
1c00
2200
4100
8100
8100
8100
8200
4400
3800
ENDCHAR
STARTCHAR Odieresis
ENCODING 214
SWIDTH 708 0
DWIDTH 10 0
BBX 8 12 1 0
BITMAP
0a00
0000
0000
1c00
2200
4100
8100
8100
8100
8200
4400
3800
ENDCHAR
STARTCHAR multiply
ENCODING 215
SWIDTH 833 0
DWIDTH 12 0
BBX 8 8 2 0
BITMAP
8100
4200
2400
1800
1800
2400
4200
8100
ENDCHAR
STARTCHAR Oslash
ENCODING 216
SWIDTH 708 0
DWIDTH 10 0
BBX 8 12 1 -1
BITMAP
0000
0200
1e00
2200
4500
8900
9100
9100
a200
4400
7800
8000
ENDCHAR
STARTCHAR Ugrave
ENCODING 217
SWIDTH 664 0
DWIDTH 9 0
BBX 9 13 1 0
BITMAP
1000
0800
0800
0000
e380
4100
4100
4200
8200
8200
8200
8400
7800
ENDCHAR
STARTCHAR Uacute
ENCODING 218
SWIDTH 664 0
DWIDTH 9 0
BBX 9 13 1 0
BITMAP
0600
0400
0800
0000
e380
4100
4100
4200
8200
8200
8200
8400
7800
ENDCHAR
STARTCHAR Ucircumflex
ENCODING 219
SWIDTH 664 0
DWIDTH 9 0
BBX 9 13 1 0
BITMAP
0800
1400
2400
0000
e380
4100
4100
4200
8200
8200
8200
8400
7800
ENDCHAR
STARTCHAR Udieresis
ENCODING 220
SWIDTH 664 0
DWIDTH 9 0
BBX 9 12 1 0
BITMAP
1400
0000
0000
e380
4100
4100
4200
8200
8200
8200
8400
7800
ENDCHAR
STARTCHAR Yacute
ENCODING 221
SWIDTH 563 0
DWIDTH 8 0
BBX 9 13 0 0
BITMAP
0600
0400
0800
0000
f380
4100
2200
2400
3800
1000
3000
2000
7800
ENDCHAR
STARTCHAR Thorn
ENCODING 222
SWIDTH 532 0
DWIDTH 8 0
BBX 8 9 0 0
BITMAP
3c00
1e00
1100
3100
2100
2200
3c00
6000
f000
ENDCHAR
STARTCHAR germandbls
ENCODING 223
SWIDTH 574 0
DWIDTH 8 0
BBX 9 14 -2 -3
BITMAP
0300
0480
0880
0880
1300
1200
1200
1100
1080
1500
2600
2000
2000
c000
ENDCHAR
STARTCHAR agrave
ENCODING 224
SWIDTH 525 0
DWIDTH 7 0
BBX 6 11 0 0
BITMAP
10
08
08
00
00
3c
44
84
88
98
6c
ENDCHAR
STARTCHAR aacute
ENCODING 225
SWIDTH 525 0
DWIDTH 7 0
BBX 7 11 0 0
BITMAP
06
04
08
00
00
3c
44
84
88
98
6c
ENDCHAR
STARTCHAR acircumflex
ENCODING 226
SWIDTH 525 0
DWIDTH 7 0
BBX 6 11 0 0
BITMAP
08
14
24
00
00
3c
44
84
88
98
6c
ENDCHAR
STARTCHAR atilde
ENCODING 227
SWIDTH 525 0
DWIDTH 7 0
BBX 7 10 0 0
BITMAP
1a
2c
00
00
3c
44
84
88
98
6c
ENDCHAR
STARTCHAR adieresis
ENCODING 228
SWIDTH 525 0
DWIDTH 7 0
BBX 6 10 0 0
BITMAP
14
00
00
00
3c
44
84
88
98
6c
ENDCHAR
STARTCHAR aring
ENCODING 229
SWIDTH 525 0
DWIDTH 7 0
BBX 6 11 0 0
BITMAP
18
14
14
18
00
3c
44
84
88
98
6c
ENDCHAR
STARTCHAR ae
ENCODING 230
SWIDTH 671 0
DWIDTH 9 0
BBX 8 6 0 0
BITMAP
3600
4900
0b00
7c00
9100
ee00
ENDCHAR
STARTCHAR ccedilla
ENCODING 231
SWIDTH 394 0
DWIDTH 5 0
BBX 4 9 0 -3
BITMAP
30
50
80
80
90
60
60
20
c0
ENDCHAR
STARTCHAR egrave
ENCODING 232
SWIDTH 424 0
DWIDTH 6 0
BBX 5 11 0 0
BITMAP
10
08
08
00
00
30
48
90
e0
88
70
ENDCHAR
STARTCHAR eacute
ENCODING 233
SWIDTH 424 0
DWIDTH 6 0
BBX 7 11 0 0
BITMAP
06
04
08
00
00
30
48
90
e0
88
70
ENDCHAR
STARTCHAR ecircumflex
ENCODING 234
SWIDTH 424 0
DWIDTH 6 0
BBX 6 11 0 0
BITMAP
08
14
24
00
00
30
48
90
e0
88
70
ENDCHAR
STARTCHAR edieresis
ENCODING 235
SWIDTH 424 0
DWIDTH 6 0
BBX 6 10 0 0
BITMAP
14
00
00
00
30
48
90
e0
88
70
ENDCHAR
STARTCHAR igrave
ENCODING 236
SWIDTH 287 0
DWIDTH 4 0
BBX 3 11 1 0
BITMAP
40
20
20
00
00
c0
40
40
80
80
e0
ENDCHAR
STARTCHAR iacute
ENCODING 237
SWIDTH 287 0
DWIDTH 4 0
BBX 5 11 1 0
BITMAP
18
10
20
00
00
c0
40
40
80
80
e0
ENDCHAR
STARTCHAR icircumflex
ENCODING 238
SWIDTH 287 0
DWIDTH 4 0
BBX 4 11 1 0
BITMAP
20
50
90
00
00
c0
40
40
80
80
e0
ENDCHAR
STARTCHAR idieresis
ENCODING 239
SWIDTH 287 0
DWIDTH 4 0
BBX 4 10 1 0
BITMAP
50
00
00
00
c0
40
40
80
80
e0
ENDCHAR
STARTCHAR eth
ENCODING 240
SWIDTH 500 0
DWIDTH 7 0
BBX 6 11 0 0
BITMAP
30
14
18
68
08
3c
44
84
84
88
70
ENDCHAR
STARTCHAR ntilde
ENCODING 241
SWIDTH 556 0
DWIDTH 8 0
BBX 7 10 1 0
BITMAP
34
58
00
00
dc
64
44
48
88
8e
ENDCHAR
STARTCHAR ograve
ENCODING 242
SWIDTH 502 0
DWIDTH 7 0
BBX 6 11 0 0
BITMAP
10
08
08
00
00
38
44
84
84
88
70
ENDCHAR
STARTCHAR oacute
ENCODING 243
SWIDTH 502 0
DWIDTH 7 0
BBX 7 11 0 0
BITMAP
06
04
08
00
00
38
44
84
84
88
70
ENDCHAR
STARTCHAR ocircumflex
ENCODING 244
SWIDTH 502 0
DWIDTH 7 0
BBX 6 11 0 0
BITMAP
08
14
24
00
00
38
44
84
84
88
70
ENDCHAR
STARTCHAR otilde
ENCODING 245
SWIDTH 502 0
DWIDTH 7 0
BBX 7 10 0 0
BITMAP
1a
2c
00
00
38
44
84
84
88
70
ENDCHAR
STARTCHAR odieresis
ENCODING 246
SWIDTH 502 0
DWIDTH 7 0
BBX 6 10 0 0
BITMAP
14
00
00
00
38
44
84
84
88
70
ENDCHAR
STARTCHAR divide
ENCODING 247
SWIDTH 833 0
DWIDTH 12 0
BBX 8 7 2 1
BITMAP
1800
1800
0000
ff00
0000
1800
1800
ENDCHAR
STARTCHAR oslash
ENCODING 248
SWIDTH 502 0
DWIDTH 7 0
BBX 6 8 0 -1
BITMAP
04
38
4c
94
a4
c8
70
80
ENDCHAR
STARTCHAR ugrave
ENCODING 249
SWIDTH 553 0
DWIDTH 8 0
BBX 6 11 1 0
BITMAP
20
10
10
00
00
c4
44
48
88
98
ec
ENDCHAR
STARTCHAR uacute
ENCODING 250
SWIDTH 553 0
DWIDTH 8 0
BBX 6 11 1 0
BITMAP
0c
08
10
00
00
c4
44
48
88
98
ec
ENDCHAR
STARTCHAR ucircumflex
ENCODING 251
SWIDTH 553 0
DWIDTH 8 0
BBX 6 11 1 0
BITMAP
10
28
48
00
00
c4
44
48
88
98
ec
ENDCHAR
STARTCHAR udieresis
ENCODING 252
SWIDTH 553 0
DWIDTH 8 0
BBX 6 10 1 0
BITMAP
28
00
00
00
c4
44
48
88
98
ec
ENDCHAR
STARTCHAR yacute
ENCODING 253
SWIDTH 475 0
DWIDTH 6 0
BBX 9 14 -2 -3
BITMAP
0180
0100
0200
0000
0000
7300
1200
1200
1400
1400
0800
1000
a000
c000
ENDCHAR
STARTCHAR thorn
ENCODING 254
SWIDTH 516 0
DWIDTH 7 0
BBX 7 14 -1 -3
BITMAP
70
30
30
20
20
2c
32
22
42
44
78
40
40
e0
ENDCHAR
STARTCHAR ydieresis
ENCODING 255
SWIDTH 475 0
DWIDTH 6 0
BBX 8 13 -2 -3
BITMAP
0500
0000
0000
0000
7300
1200
1200
1400
1400
0800
1000
a000
c000
ENDCHAR
ENDFONT
